<?xml version="1.0" encoding="utf-8"?>
<!-- Generator: Adobe Illustrator 25.2.0, SVG Export Plug-In . SVG Version: 6.00 Build 0)  -->
<svg version="1.1" id="Layer_1" xmlns="http://www.w3.org/2000/svg" xmlns:xlink="http://www.w3.org/1999/xlink" x="0px" y="0px"
	 viewBox="0 0 100 125" style="enable-background:new 0 0 100 125;" xml:space="preserve">
<g>
	<path d="M50,11c-10.4,0-20.2,4.1-27.6,11.4S11,39.6,11,50s4.1,20.2,11.4,27.6S39.6,89,50,89s20.2-4.1,27.6-11.4S89,60.4,89,50
		s-4.1-20.2-11.4-27.6S60.4,11,50,11z M71.9,71.9C66.1,77.8,58.3,81,50,81s-16.1-3.2-21.9-9.1C22.2,66.1,19,58.3,19,50
		s3.2-16.1,9.1-21.9C33.9,22.2,41.7,19,50,19s16.1,3.2,21.9,9.1C77.8,33.9,81,41.7,81,50S77.8,66.1,71.9,71.9z"/>
	<path d="M52.9,47.3V40c1.9,0.4,3.4,1.3,4.6,2.6l1,1.1l3.9-3.8l-1.1-1.1c-2.2-2.2-5.1-3.5-8.5-4V31h-5.1v3.8
		c-5.6,0.7-9.4,4.1-9.4,8.5c0,5.6,5.1,7.3,9.4,8.4v8.4c-3.1-0.6-5.1-2.2-6.1-3.2l-1.1-1.1l-3.8,3.9l1,1c2.4,2.5,5.9,4.2,9.9,4.6V69
		h5.1v-3.7c7.1-0.9,9.6-5.1,9.6-9C62.5,50.3,56.9,48.3,52.9,47.3z M52.9,60.1V53c2.8,0.9,3.9,1.9,3.9,3.5
		C56.8,57.2,56.5,59.4,52.9,60.1z M47.8,39.9v6c-2.6-0.8-3.6-1.6-3.6-2.8C44.2,41.7,45.6,40.4,47.8,39.9z"/>
</g>
</svg>
