<?xml version="1.0" encoding="utf-8"?>
<!-- Generator: Adobe Illustrator 25.2.0, SVG Export Plug-In . SVG Version: 6.00 Build 0)  -->
<svg version="1.1" id="Layer_1" xmlns="http://www.w3.org/2000/svg" xmlns:xlink="http://www.w3.org/1999/xlink" x="0px" y="0px"
	 viewBox="0 0 512 640" style="enable-background:new 0 0 512 640;" xml:space="preserve">
<path d="M418.5,163.2c-5.3-9-13.1-16.4-22.5-21.1V50c0-27.6-22.4-50-50-50c-13.1,0-25.6,5.1-35,14.3c-19.4-19.1-50.6-19.1-70,0
	c-19.4-19.1-50.6-19.1-70,0C151.3-5,119.6-4.7,100.3,15C91.1,24.4,86,36.9,86,50v214c0,10.3,2.9,20.4,8.4,29.1l41.6,66.6V421h-5
	c-13.8,0-25,11.2-25,25l0,0v41c0,13.8,11.2,25,25,25h220c13.8,0,25-11.2,25-25v-41c0-13.8-11.2-25-25-25l0,0h-5v-56.2l5.1-2.5
	C397,339.3,426,292.3,426,241v-50C426,181.2,423.4,171.6,418.5,163.2z M346,30c11,0,20,9,20,20v86h-40V50C326,39,335,30,346,30z
	 M276,30c11,0,20,9,20,20v86h-40V50C256,39,265,30,276,30z M206,30c11,0,20,9,20,20v86.4c-17.2,2.5-30,17.3-30,34.6
	c0,2.2,0.1,4.3,0.3,6.5c-6.3-3.5-10.3-10.2-10.3-17.5V50C186,39,195,30,206,30z M116,50c0-11,9-20,20-20s20,9,20,20v110
	c0,11-9,20-20,20s-20-9-20-20V50z M346,482H136v-31h210V482z M396,241c0.1,40-22.5,76.6-58.3,94.4l-13.4,6.7
	c-5.1,2.5-8.3,7.7-8.3,13.4V421H166v-65.5c0-2.8-0.8-5.6-2.3-8l-43.9-70.3c-2.5-4-3.8-8.6-3.8-13.3v-58.2c18.7,8.2,40.5,4.2,55-10.1
	c9.2,9.1,21.6,14.2,34.5,14.3c14.6,28.2,43.7,46,75.5,46h58.3c8.3,0,15-6.7,15-15s-6.7-15-15-15H281c-30.4,0-55-24.6-55-55
	c0-2.8,2.2-5,5-5h140c13.8,0,25,11.2,25,25V241z"/>
</svg>
